<svg width="360" height="227" viewBox="0 0 360 227" fill="none" xmlns="http://www.w3.org/2000/svg">
<rect width="360" height="227" fill="#E0F5FF"/>
<path d="M197.112 85.9182L176.651 99.3551L181.775 75.4192C183.275 68.4095 191.424 65.1822 197.317 69.2637C203.171 73.3185 203.064 82.0089 197.112 85.9182Z" stroke="#44C1FA" stroke-width="4"/>
<path d="M154.783 85.9182L175.243 99.3551L170.119 75.4192C168.619 68.4095 160.47 65.1822 154.577 69.2637C148.723 73.3185 148.83 82.0089 154.783 85.9182Z" stroke="#44C1FA" stroke-width="4"/>
<path d="M129.052 107.75C129.052 102.227 133.529 97.75 139.052 97.75H211.052V164.75H139.052C133.529 164.75 129.052 160.273 129.052 154.75V107.75Z" fill="#B1E3FE"/>
<path d="M172.897 110.205L177.182 129.599L158.244 123.614L172.897 110.205Z" fill="white"/>
<rect x="184.151" y="143.263" width="32.6223" height="16.3112" transform="rotate(-28.3941 184.151 143.263)" fill="#E0F5FF"/>
<mask id="mask0_355_4655" style="mask-type:alpha" maskUnits="userSpaceOnUse" x="128" y="97" width="41" height="67">
<rect x="128.948" y="97.9075" width="39.6052" height="65.8436" transform="rotate(-0.227785 128.948 97.9075)" fill="#B8EAA5"/>
</mask>
<g mask="url(#mask0_355_4655)">
<circle cx="132.116" cy="141.934" r="13.3888" transform="rotate(-0.227785 132.116 141.934)" fill="#7BD2FC"/>
</g>
<path d="M211.052 97.75H222.052C227.574 97.75 232.052 102.227 232.052 107.75V154.75C232.052 160.273 227.574 164.75 222.052 164.75H211.052V97.75Z" fill="#44C1FA"/>
</svg>
