<svg xmlns="http://www.w3.org/2000/svg" width="43" height="44" viewBox="0 0 43 44" fill="none">
  <path fill-rule="evenodd" clip-rule="evenodd" d="M18.8644 12.264C17.1122 12.8116 16.0523 14.3342 15.7215 16.1343C15.6637 16.474 15.3464 16.7062 15.0052 16.6586L10.1284 15.9785C10.603 13.3965 15.6307 11.8594 18.4164 12.264C18.5192 12.2789 18.7642 12.2436 18.8644 12.264Z" fill="#0098E8"/>
  <g style="mix-blend-mode:multiply" opacity="0.6">
    <path d="M34.2504 23.2744H25.1504V32.5494H33.0254V41.9994H41.0754C42.0418 41.9994 42.8254 41.2158 42.8254 40.2494V34.2994C42.8254 33.333 42.0418 32.5494 41.0754 32.5494H37.7504C36.7839 32.5494 36.0004 31.7659 36.0004 30.7994V25.0244C36.0004 24.0579 35.2168 23.2744 34.2504 23.2744Z" fill="#0098E8"/>
  </g>
  <path d="M19.7251 25.0244C19.7251 24.0579 20.5086 23.2744 21.4751 23.2744H26.1126C27.0791 23.2744 27.8626 24.0579 27.8626 25.0244V30.774C27.8626 31.7405 28.6461 32.524 29.6126 32.524H34.2501C35.2166 32.524 36.0001 33.3075 36.0001 34.274V41.9994H21.4751C20.5086 41.9994 19.7251 41.2159 19.7251 40.2494V25.0244Z" fill="#B1E3FE"/>
  <g opacity="0.1" filter="url(#filter0_f_741_2725)">
    <path d="M19.7251 25.0244C19.7251 24.0579 20.5086 23.2744 21.4751 23.2744H26.1126C27.0791 23.2744 27.8626 24.0579 27.8626 25.0244V30.774C27.8626 31.7405 28.6461 32.524 29.6126 32.524H34.2501C35.2166 32.524 36.0001 33.3075 36.0001 34.274V41.9994H21.4751C20.5086 41.9994 19.7251 41.2159 19.7251 40.2494V25.0244Z" fill="#B1E3FE"/>
  </g>
  <path d="M1 31.4119C1 26.9177 4.64328 23.2744 9.1375 23.2744C13.6317 23.2744 17.275 26.9177 17.275 31.4119V40.2971C17.275 41.2373 16.5129 41.9994 15.5727 41.9994H2.70227C1.76213 41.9994 1 41.2373 1 40.2971V31.4119Z" fill="#E0F5FF"/>
  <circle cx="12.2878" cy="33.5119" r="2.3625" fill="#0098E8"/>
  <path d="M41.024 20.7116L36.0835 19.9361L20.2076 0.167989L26.8625 1.02251C27.2947 1.078 27.6867 1.29188 27.962 1.62237L42.1992 18.7161C42.9176 19.5786 42.1465 20.8878 41.024 20.7116Z" fill="#0098E8"/>
  <path fill-rule="evenodd" clip-rule="evenodd" d="M1.26375 12.5792C0.332433 13.2104 0.658862 14.5871 1.77941 14.7544L11.5815 16.2177C12.0498 16.2876 12.481 15.9677 12.6464 15.5241C13.459 13.3451 15.815 11.9213 18.2779 12.2889C20.7212 12.6537 22.4508 14.6593 22.4891 16.9388C22.4973 17.4319 22.8197 17.8955 23.3074 17.9683L36.1122 19.88L21.6121 0.86928C21.032 0.108562 19.9097 -0.0590124 19.0947 0.4934L1.26375 12.5792Z" fill="#7BD2FC"/>
  <defs>
    <filter id="filter0_f_741_2725" x="17.7742" y="21.3235" width="20.1767" height="22.6269" filterUnits="userSpaceOnUse" color-interpolation-filters="sRGB">
      <feFlood flood-opacity="0" result="BackgroundImageFix"/>
      <feBlend mode="normal" in="SourceGraphic" in2="BackgroundImageFix" result="shape"/>
      <feGaussianBlur stdDeviation="0.97545" result="effect1_foregroundBlur_741_2725"/>
    </filter>
  </defs>
</svg>