<svg xmlns="http://www.w3.org/2000/svg" width="56" height="56" viewBox="0 0 56 56" fill="none">
  <path fill-rule="evenodd" clip-rule="evenodd" d="M25.7643 12.6775C34.5811 10.315 43.5753 15.2922 45.8534 23.7942C48.1315 32.2962 42.8309 41.1036 34.0141 43.466C25.1973 45.8285 16.2031 40.8514 13.925 32.3494C11.6469 23.8473 16.9475 15.04 25.7643 12.6775Z" fill="#B1E3FE"/>
  <path fill-rule="evenodd" clip-rule="evenodd" d="M25.0865 27.709C23.9844 28.0043 22.8601 27.3822 22.5753 26.3194C22.2906 25.2567 22.9532 24.1557 24.0553 23.8604C25.1574 23.5651 26.2816 24.1873 26.5664 25.25C26.8512 26.3128 26.1886 27.4137 25.0865 27.709ZM31.3556 23.9669C31.6404 25.0296 32.7647 25.6517 33.8668 25.3564C34.9689 25.0611 35.6314 23.9602 35.3467 22.8975C35.0619 21.8347 33.9376 21.2126 32.8355 21.5079C31.7334 21.8032 31.0709 22.9041 31.3556 23.9669ZM36.929 28.1661C36.087 27.845 35.1233 28.2509 34.7766 29.0729C34.6459 29.3826 34.2415 29.9614 33.5197 30.5599C32.8209 31.1393 31.9252 31.6518 30.92 31.9212C29.9147 32.1905 28.8827 32.1945 27.9879 32.0421C27.0635 31.8847 26.4239 31.5856 26.1559 31.3828C25.4446 30.8443 24.407 30.9746 23.8384 31.6737C23.2697 32.3729 23.3853 33.3761 24.0966 33.9145C24.9018 34.524 26.0881 34.9731 27.36 35.1897C28.6614 35.4113 30.1959 35.4151 31.7449 35C33.2939 34.585 34.621 33.8144 35.6372 32.9718C36.6304 32.1483 37.4333 31.1662 37.8258 30.2357C38.1726 29.4138 37.7711 28.4872 36.929 28.1661Z" fill="#0098E8"/>
  <path fill-rule="evenodd" clip-rule="evenodd" d="M43.4736 8.69835L44.5681 13.0966L47.6493 16.2924L43.3818 17.5179L40.2337 20.778L39.1392 16.3798L36.058 13.1839L40.3255 11.9584L43.4736 8.69835Z" fill="#7BD2FC"/>
  <path d="M44.5681 13.0966L44.0749 13.2193C44.0964 13.3058 44.1403 13.3852 44.2022 13.4494L44.5681 13.0966ZM43.4736 8.69835L43.9668 8.57561C43.9222 8.39628 43.7837 8.2553 43.6052 8.20743C43.4267 8.15956 43.2363 8.21235 43.108 8.34529L43.4736 8.69835ZM47.6493 16.2924L47.7895 16.781C47.9609 16.7317 48.094 16.5963 48.1402 16.4241C48.1864 16.2519 48.1389 16.068 48.0152 15.9397L47.6493 16.2924ZM43.3818 17.5179L43.2415 17.0294C43.1558 17.054 43.0781 17.1007 43.0162 17.1648L43.3818 17.5179ZM40.2337 20.778L39.7405 20.9008C39.7851 21.0801 39.9235 21.2211 40.102 21.269C40.2805 21.3168 40.471 21.2641 40.5993 21.1311L40.2337 20.778ZM39.1392 16.3798L39.6324 16.2571C39.6109 16.1705 39.567 16.0912 39.5051 16.027L39.1392 16.3798ZM36.058 13.1839L35.9177 12.6954C35.7463 12.7446 35.6132 12.88 35.5671 13.0523C35.5209 13.2245 35.5683 13.4083 35.6921 13.5367L36.058 13.1839ZM40.3255 11.9584L40.4658 12.4469C40.5515 12.4223 40.6292 12.3756 40.6912 12.3115L40.3255 11.9584ZM45.0613 12.9738L43.9668 8.57561L42.9804 8.82109L44.0749 13.2193L45.0613 12.9738ZM48.0152 15.9397L44.934 12.7438L44.2022 13.4494L47.2833 16.6452L48.0152 15.9397ZM43.5221 18.0064L47.7895 16.781L47.509 15.8039L43.2415 17.0294L43.5221 18.0064ZM40.5993 21.1311L43.7475 17.871L43.0162 17.1648L39.8681 20.425L40.5993 21.1311ZM38.646 16.5025L39.7405 20.9008L40.7269 20.6553L39.6324 16.2571L38.646 16.5025ZM35.6921 13.5367L38.7733 16.7326L39.5051 16.027L36.4239 12.8311L35.6921 13.5367ZM40.1853 11.4699L35.9177 12.6954L36.1983 13.6724L40.4658 12.4469L40.1853 11.4699ZM43.108 8.34529L39.9599 11.6053L40.6912 12.3115L43.8392 9.05142L43.108 8.34529Z" fill="#7BD2FC"/>
  <circle cx="11.7808" cy="36.4109" r="4.63152" transform="rotate(13.9442 11.7808 36.4109)" fill="#0098E8"/>
  <circle cx="19.7134" cy="38.3807" r="4.63152" transform="rotate(13.9442 19.7134 38.3807)" fill="#0098E8"/>
  <circle cx="9.81107" cy="44.3436" r="4.63152" transform="rotate(13.9442 9.81107 44.3436)" fill="#0098E8"/>
  <circle cx="17.7437" cy="46.3128" r="4.63152" transform="rotate(13.9442 17.7437 46.3128)" fill="#0098E8"/>
  <circle cx="14.961" cy="41.6922" r="4.63152" transform="rotate(13.9442 14.961 41.6922)" fill="#0098E8"/>
</svg>