<svg xmlns="http://www.w3.org/2000/svg" width="56" height="56" viewBox="0 0 56 56" fill="none">
  <path d="M26.9063 35.5548C26.9063 34.9121 27.1737 34.2983 27.6444 33.8607L36.139 25.964C37.0267 25.1388 38.4009 25.1388 39.2886 25.964L47.7831 33.8608C48.2538 34.2983 48.5212 34.9121 48.5212 35.5548L48.5213 47.556H26.9063L26.9063 35.5548Z" fill="#0098E8"/>
  <path d="M7.7002 22.2727C7.7002 21.517 8.00069 20.7923 8.53547 20.2583L19.1008 9.70865C20.2121 8.59893 22.0123 8.59893 23.1236 9.70865L33.6889 20.2583C34.2237 20.7923 34.5242 21.517 34.5242 22.2727V46.5029C34.5242 47.1559 33.9948 47.6853 33.3418 47.6853H8.88255C8.22956 47.6853 7.7002 47.1559 7.7002 46.5029V22.2727Z" fill="#B1E3FE"/>
  <rect x="15.1196" y="24.8765" width="5.28607" height="5.31595" fill="white"/>
  <path d="M15.1196 23.5376C15.1196 20.6182 17.4863 18.2217 20.4057 18.2217V23.5376H15.1196Z" fill="white"/>
  <rect x="21.9678" y="24.8765" width="5.28607" height="5.31595" fill="white"/>
  <path d="M21.7778 18.2217C24.6972 18.2217 27.0639 20.6182 27.0639 23.5376H21.7778V18.2217Z" fill="white"/>
  <path d="M15.1196 40.1893C15.1196 36.8271 17.8452 34.1016 21.2073 34.1016C24.5695 34.1016 27.2951 36.8271 27.2951 40.1893V47.685H15.1196V40.1893Z" fill="#44C1FA"/>
  <ellipse cx="18.163" cy="41.7532" rx="1.52193" ry="1.53053" fill="#0098E8"/>
</svg>