<svg xmlns="http://www.w3.org/2000/svg" width="56" height="56" viewBox="0 0 56 56" fill="none">
  <path d="M36.2553 19.8551C36.6526 18.8284 36.1423 17.674 35.1156 17.2768L12.864 8.66646C11.8373 8.26919 10.683 8.77942 10.2857 9.8061L3.42516 27.5358C3.02789 28.5625 3.53812 29.7169 4.5648 30.1141L26.8164 38.7244C27.8431 39.1217 28.9975 38.6115 29.3947 37.5848L36.2553 19.8551Z" fill="#05A5F8"/>
  <path d="M44.8997 15.8067C44.6148 14.7434 43.5218 14.1123 42.4584 14.3972L19.412 20.5725C18.3486 20.8574 17.7176 21.9504 18.0025 23.0138L23.5495 43.7155C23.8344 44.7788 24.9274 45.4099 25.9908 45.1249L49.0372 38.9497C50.1006 38.6647 50.7316 37.5717 50.4467 36.5084L44.8997 15.8067Z" fill="#B1E3FE"/>
  <mask id="mask0_741_2888" style="mask-type:alpha" maskUnits="userSpaceOnUse" x="17" y="13" width="34" height="33">
    <path d="M44.7078 15.0894C44.4229 14.0261 43.3299 13.395 42.2665 13.68L19.1622 19.8708C18.0988 20.1557 17.4678 21.2487 17.7527 22.312L23.4921 43.7317C23.777 44.795 24.87 45.4261 25.9334 45.1411L49.0377 38.9504C50.1011 38.6654 50.7321 37.5724 50.4472 36.5091L44.7078 15.0894Z" fill="#B1E3FE"/>
  </mask>
  <g mask="url(#mask0_741_2888)">
    <path d="M46.9258 -0.434082L7.70518 10.0751L12.5034 27.9823L34.9844 33.4415L51.724 17.4732L46.9258 -0.434082Z" fill="#E0F5FF"/>
  </g>
  <path d="M29.9014 29.7895C29.0841 31.1425 29.5437 32.8579 30.9281 33.6209L36.4424 36.6605L39.6983 31.2709C40.5156 29.918 40.056 28.2026 38.6717 27.4395C37.2873 26.6765 35.5025 27.1547 34.6851 28.5077L34.3892 28.9976L33.8879 28.7213C32.5036 27.9583 30.7188 28.4365 29.9014 29.7895Z" fill="#0098E8" stroke="#0098E8" stroke-width="0.6203" stroke-linejoin="round"/>
</svg>