<svg xmlns="http://www.w3.org/2000/svg" width="156" height="120" viewBox="0 0 156 120" fill="none">
  <path d="M89.549 42.1523L75.8767 51.1314L79.3003 35.1366C80.3029 30.4525 85.7483 28.2958 89.6862 31.0233C93.5983 33.7328 93.5267 39.5401 89.549 42.1523Z" stroke="#44C1FA" stroke-width="2.67294"/>
  <path d="M61.2632 42.1523L74.9356 51.1314L71.5119 35.1366C70.5093 30.4525 65.064 28.2958 61.1261 31.0233C57.2139 33.7328 57.2855 39.5401 61.2632 42.1523Z" stroke="#44C1FA" stroke-width="2.67294"/>
  <path d="M44.0688 56.7412C44.0688 53.0506 47.0606 50.0588 50.7512 50.0588H98.8641V94.8305H50.7512C47.0606 94.8305 44.0688 91.8387 44.0688 88.1482V56.7412Z" fill="#B1E3FE"/>
  <path d="M73.3677 58.3821L76.2316 71.3414L63.5765 67.342L73.3677 58.3821Z" fill="white"/>
  <rect x="80.8879" y="80.4724" width="21.7993" height="10.8997" transform="rotate(-28.3941 80.8879 80.4724)" fill="#E0F5FF"/>
  <mask id="mask0_355_4857" style="mask-type:alpha" maskUnits="userSpaceOnUse" x="44" y="50" width="27" height="45">
    <rect x="44" y="50.1641" width="26.4655" height="43.999" transform="rotate(-0.227785 44 50.1641)" fill="#B8EAA5"/>
  </mask>
  <g mask="url(#mask0_355_4857)">
    <circle cx="46.1169" cy="79.5838" r="8.94684" transform="rotate(-0.227785 46.1169 79.5838)" fill="#7BD2FC"/>
  </g>
  <path d="M98.864 50.0588H106.215C109.905 50.0588 112.897 53.0506 112.897 56.7412V88.1482C112.897 91.8388 109.905 94.8305 106.215 94.8305H98.864V50.0588Z" fill="#44C1FA"/>
</svg>