<svg xmlns="http://www.w3.org/2000/svg" width="122" height="80" viewBox="0 0 122 80" fill="none">
  <g style="mix-blend-mode:multiply" opacity="0.7">
    <rect width="44.5949" height="18.187" rx="2.95606" transform="matrix(-1 0 0 1 70.7949 0)" fill="#E0F5FF"/>
    <rect width="44.5949" height="18.187" rx="2.95606" transform="matrix(-1 0 0 1 51.5425 21.522)" fill="#E0F5FF"/>
    <rect width="44.5949" height="18.187" rx="2.95606" transform="matrix(-1 0 0 1 99.6099 21.522)" fill="#E0F5FF"/>
    <rect width="44.5949" height="18.187" rx="2.95606" transform="matrix(-1 0 0 1 73.3169 42.7695)" fill="#E0F5FF"/>
    <rect width="44.5949" height="18.187" rx="2.95606" transform="matrix(-1 0 0 1 121.933 42.7695)" fill="#E0F5FF"/>
    <rect width="44.5949" height="18.187" rx="2.95606" transform="matrix(-1 0 0 1 44.5947 64.0996)" fill="#E0F5FF"/>
    <rect width="44.5949" height="18.187" rx="2.95606" transform="matrix(-1 0 0 1 93.1621 64.0996)" fill="#E0F5FF"/>
  </g>
</svg>