<svg width="285" height="49" viewBox="0 0 285 49" fill="none" xmlns="http://www.w3.org/2000/svg">
<rect width="285" height="49" rx="8" fill="#FFE558"/>
<ellipse cx="77.5" cy="23.5" rx="10" ry="8" fill="#1E2025"/>
<path d="M70.5 34.5L72 28.5L77 30.5L70.5 34.5Z" fill="#1E2025"/>
<path d="M113.742 18.6562C113.734 22.9219 112.57 26.5859 107.367 29.1719L106.413 27.8594C108.859 26.6562 110.32 25.2422 111.14 23.5703L106.742 23.9844L106.523 22.4844L111.663 22.1641C111.843 21.5 111.96 20.8047 112.015 20.0625H107.257V18.6562H113.742ZM115.726 31.3594V17.2656H117.46V22.7969H119.554V24.2188H117.46V31.3594H115.726ZM127.41 18.6562C127.402 22.9219 126.238 26.5859 121.035 29.1719L120.082 27.8594C122.527 26.6562 123.988 25.2422 124.808 23.5703L120.41 23.9844L120.191 22.4844L125.332 22.1641C125.511 21.5 125.628 20.8047 125.683 20.0625H120.925V18.6562H127.41ZM129.394 31.3594V17.2656H131.128V22.7969H133.222V24.2188H131.128V31.3594H129.394ZM140.156 18.0625C143.187 18.0703 145.429 19.5781 145.422 21.875C145.429 23.9922 143.609 25.4062 141.015 25.6641V28.25H146.64V29.6719H133.734V28.25H139.297V25.6641C136.734 25.4062 134.914 23.9922 134.922 21.875C134.914 19.5781 137.148 18.0703 140.156 18.0625ZM136.625 21.875C136.617 23.3984 138.093 24.3125 140.156 24.3125C142.25 24.3125 143.718 23.3984 143.718 21.875C143.718 20.3984 142.25 19.4609 140.156 19.4688C138.093 19.4609 136.617 20.3984 136.625 21.875ZM160.308 28.3125V29.75H147.402V28.3125H152.965V26.0156H148.933V21.3906H157.058V19.6406H148.902V18.2344H158.777V22.7656H150.668V24.5938H159.105V26.0156H154.683V28.3125H160.308ZM170.051 20.6562C170.035 23.25 171.403 25.8438 173.692 26.8281L172.66 28.2188C171.035 27.4688 169.848 25.9766 169.192 24.1328C168.543 26.1172 167.324 27.7422 165.613 28.5469L164.551 27.0938C166.903 26.0781 168.278 23.3828 168.285 20.6562V18.4062H170.051V20.6562ZM174.707 31.4062V17.2656H176.457V31.4062H174.707ZM183.438 19.7188C183.438 21.4609 184.555 23.1719 186.782 23.9062L185.907 25.25C184.321 24.7188 183.203 23.6641 182.586 22.3438C181.961 23.7891 180.789 24.9375 179.141 25.5L178.219 24.1562C180.493 23.3984 181.688 21.5703 181.688 19.7188V19.5469H178.703V18.1562H186.375V19.5469H183.438V19.7188ZM180.11 27.8281V26.4375H189.516V31.3906H187.782V27.8281H180.11ZM187.782 25.7812V17.2656H189.516V20.7969H191.485V22.25H189.516V25.7812H187.782ZM203.106 17.2656V22.8906H205.278V24.3281H203.106V31.3906H201.387V17.2656H203.106ZM191.965 20.8281V19.4375H195.309V17.4688H197.043V19.4375H200.293V20.8281H191.965ZM192.622 25.0781C192.606 23.125 194.122 21.7422 196.184 21.75C198.215 21.7422 199.723 23.125 199.731 25.0781C199.723 27.0234 198.215 28.3906 196.184 28.3906C194.122 28.3906 192.606 27.0234 192.622 25.0781ZM194.278 25.0781C194.27 26.2266 195.075 26.9609 196.184 26.9531C197.27 26.9609 198.059 26.2266 198.075 25.0781C198.059 23.9297 197.27 23.1719 196.184 23.1719C195.075 23.1719 194.27 23.9297 194.278 25.0781ZM217.508 17.2656V31.3906H215.758V17.2656H217.508ZM205.805 27.5C209.508 25.7422 211.212 23.3516 211.524 20.1406H206.524V18.7656H213.29C213.29 22.9688 211.657 26.5391 206.712 28.8906L205.805 27.5Z" fill="#1E2025"/>
</svg>
