<svg xmlns="http://www.w3.org/2000/svg" width="16" height="17" viewBox="0 0 16 17" fill="none">
  <rect y="0.5" width="16" height="16" rx="8" fill="#B1E3FE"/>
  <mask id="mask0_252_3313" style="mask-type:alpha" maskUnits="userSpaceOnUse" x="-1" y="0" width="17" height="17">
    <rect x="-0.000244141" y="0.5" width="16" height="16" fill="#1C1B1F"/>
  </mask>
  <g mask="url(#mask0_252_3313)">
    <path d="M8.69963 8.50007L5.96629 5.76673C5.84407 5.64451 5.78296 5.50284 5.78296 5.34173C5.78296 5.18062 5.84407 5.03895 5.96629 4.91673C6.08851 4.79451 6.23018 4.7334 6.39129 4.7334C6.5524 4.7334 6.69595 4.79639 6.82193 4.92237L9.98296 8.0834C10.0385 8.1434 10.0802 8.2084 10.108 8.2784C10.1357 8.3484 10.1496 8.4234 10.1496 8.5034C10.1496 8.5834 10.1357 8.6584 10.108 8.7284C10.0802 8.7984 10.0385 8.86118 9.98296 8.91673L6.82193 12.0778C6.69595 12.2037 6.55518 12.264 6.39963 12.2584C6.24407 12.2528 6.10518 12.189 5.98296 12.0667C5.86074 11.9445 5.79963 11.8028 5.79963 11.6417C5.79963 11.4806 5.86074 11.339 5.98296 11.2167L8.69963 8.50007Z" fill="#0098E8"/>
  </g>
</svg>