<svg xmlns="http://www.w3.org/2000/svg" width="16" height="17" viewBox="0 0 16 17" fill="none">
  <rect width="16" height="16" rx="8" transform="matrix(-1 0 0 1 16 0.5)" fill="#B1E3FE"/>
  <mask id="mask0_252_3308" style="mask-type:alpha" maskUnits="userSpaceOnUse" x="0" y="0" width="16" height="17">
    <rect width="16" height="16" transform="matrix(-1 0 0 1 16 0.5)" fill="#1C1B1F"/>
  </mask>
  <g mask="url(#mask0_252_3308)">
    <path d="M7.30013 8.50007L10.0335 5.76673C10.1557 5.64451 10.2168 5.50284 10.2168 5.34173C10.2168 5.18062 10.1557 5.03895 10.0335 4.91673C9.91124 4.79451 9.76957 4.7334 9.60846 4.7334C9.44735 4.7334 9.30381 4.79639 9.17783 4.92237L6.0168 8.0834C5.96124 8.1434 5.91957 8.2084 5.8918 8.2784C5.86402 8.3484 5.85013 8.4234 5.85013 8.5034C5.85013 8.5834 5.86402 8.6584 5.8918 8.7284C5.91957 8.7984 5.96124 8.86118 6.0168 8.91673L9.17783 12.0778C9.30381 12.2037 9.44457 12.264 9.60013 12.2584C9.75569 12.2528 9.89457 12.189 10.0168 12.0667C10.139 11.9445 10.2001 11.8028 10.2001 11.6417C10.2001 11.4806 10.139 11.339 10.0168 11.2167L7.30013 8.50007Z" fill="#0098E8"/>
  </g>
</svg>