<svg width="24" height="24" viewBox="0 0 24 24" fill="none" xmlns="http://www.w3.org/2000/svg">
<path fill-rule="evenodd" clip-rule="evenodd" d="M18.9133 7.89526C18.62 7.96377 18.3142 8 18 8C15.7909 8 14 6.20914 14 4C14 3.43049 14.119 2.88878 14.3335 2.39839C13.6037 2.14039 12.8182 2 12 2C8.13401 2 5 5.13401 5 9L5 12L3.8174 13.971C3.01757 15.3041 3.9778 17 5.53239 17L18.4676 17C20.0222 17 20.9824 15.3041 20.1826 13.971L19 12L19 9C19 8.6241 18.9704 8.25511 18.9133 7.89526ZM15 19C15 20.6569 13.6569 22 12 22C10.3431 22 9 20.6569 9 19H15Z" fill="#6A737B"/>
<circle cx="18" cy="4" r="2" fill="#EB5281"/>
</svg>
