<svg width="57" height="56" viewBox="0 0 57 56" fill="none" xmlns="http://www.w3.org/2000/svg">
<g id="spot">
<rect x="0.5" width="56" height="56" rx="28" fill="#E0F5FF"/>
<g id="Group 13304">
<path id="Union" fill-rule="evenodd" clip-rule="evenodd" d="M40.8445 16.9329H16.1555V39.9191C16.1555 42.7402 18.4425 45.0272 21.2636 45.0272H35.7364C38.5575 45.0272 40.8445 42.7402 40.8445 39.9191V16.9329Z" fill="#7BD2FC"/>
<path id="Union_2" fill-rule="evenodd" clip-rule="evenodd" d="M24.2433 10.9734C22.3625 10.9734 20.8379 12.498 20.8379 14.3788V16.9329H14.4529C13.5126 16.9329 12.7502 17.6952 12.7502 18.6356C12.7502 19.576 13.5126 20.3383 14.4529 20.3383H42.5473C43.4876 20.3383 44.25 19.576 44.25 18.6356C44.25 17.6952 43.4876 16.9329 42.5473 16.9329H36.1621V14.3788C36.1621 12.498 34.6375 10.9734 32.7567 10.9734H24.2433ZM24.2433 14.3788H32.7567V16.9328H24.2433V14.3788Z" fill="#0098E8"/>
<g id="Group 13109">
<path id="Vector 16 (Stroke)" fill-rule="evenodd" clip-rule="evenodd" d="M31.9053 25.446C32.8457 25.446 33.608 26.2084 33.608 27.1487V35.6622C33.608 36.6025 32.8457 37.3649 31.9053 37.3649C30.965 37.3649 30.2026 36.6025 30.2026 35.6622V27.1487C30.2026 26.2084 30.965 25.446 31.9053 25.446Z" fill="#0098E8"/>
<path id="Vector 17 (Stroke)" fill-rule="evenodd" clip-rule="evenodd" d="M25.0945 25.446C26.0349 25.446 26.7972 26.2084 26.7972 27.1487V35.6622C26.7972 36.6025 26.0349 37.3649 25.0945 37.3649C24.1542 37.3649 23.3918 36.6025 23.3918 35.6622V27.1487C23.3918 26.2084 24.1542 25.446 25.0945 25.446Z" fill="#0098E8"/>
</g>
</g>
</g>
</svg>
