<svg width="20" height="20" viewBox="0 0 20 20" fill="none" xmlns="http://www.w3.org/2000/svg">
<g id="delete">
<mask id="mask0_1316_2217" style="mask-type:alpha" maskUnits="userSpaceOnUse" x="0" y="0" width="20" height="20">
<rect id="Bounding box" width="20" height="20" fill="#D9D9D9"/>
</mask>
<g mask="url(#mask0_1316_2217)">
<path id="delete_2" d="M6.5 17C6.0875 17 5.73438 16.8531 5.44062 16.5594C5.14687 16.2656 5 15.9125 5 15.5V5.5H4.75C4.5375 5.5 4.35938 5.42855 4.21563 5.28565C4.07188 5.14273 4 4.96565 4 4.7544C4 4.54313 4.07188 4.36458 4.21563 4.21875C4.35938 4.07292 4.5375 4 4.75 4H8V3.75C8 3.5375 8.07188 3.35937 8.21563 3.21562C8.35938 3.07187 8.5375 3 8.75 3H11.25C11.4625 3 11.6406 3.07187 11.7844 3.21562C11.9281 3.35937 12 3.5375 12 3.75V4H15.25C15.4625 4 15.6406 4.07145 15.7844 4.21435C15.9281 4.35727 16 4.53435 16 4.7456C16 4.95687 15.9281 5.13542 15.7844 5.28125C15.6406 5.42708 15.4625 5.5 15.25 5.5H15V15.491C15 15.9137 14.8531 16.2708 14.5594 16.5625C14.2656 16.8542 13.9125 17 13.5 17H6.5ZM13.5 5.5H6.5V15.5H13.5V5.5ZM8.7456 14C8.95687 14 9.13542 13.9281 9.28125 13.7844C9.42708 13.6406 9.5 13.4625 9.5 13.25V7.75C9.5 7.5375 9.42855 7.35938 9.28565 7.21562C9.14273 7.07187 8.96565 7 8.7544 7C8.54313 7 8.36458 7.07187 8.21875 7.21562C8.07292 7.35938 8 7.5375 8 7.75V13.25C8 13.4625 8.07145 13.6406 8.21435 13.7844C8.35727 13.9281 8.53435 14 8.7456 14ZM11.2456 14C11.4569 14 11.6354 13.9281 11.7812 13.7844C11.9271 13.6406 12 13.4625 12 13.25V7.75C12 7.5375 11.9285 7.35938 11.7856 7.21562C11.6427 7.07187 11.4656 7 11.2544 7C11.0431 7 10.8646 7.07187 10.7188 7.21562C10.5729 7.35938 10.5 7.5375 10.5 7.75V13.25C10.5 13.4625 10.5715 13.6406 10.7144 13.7844C10.8573 13.9281 11.0344 14 11.2456 14Z" fill="#6A737B"/>
</g>
</g>
</svg>
