<svg width="20" height="20" viewBox="0 0 20 20" fill="none" xmlns="http://www.w3.org/2000/svg">
<g id="arrow_forward_ios">
<mask id="mask0_2187_2727" style="mask-type:alpha" maskUnits="userSpaceOnUse" x="0" y="0" width="20" height="20">
<rect id="Bounding box" width="20" height="20" transform="matrix(-4.37114e-08 1 1 4.37114e-08 0 0)" fill="#D9D9D9"/>
</mask>
<g mask="url(#mask0_2187_2727)">
<path id="arrow_forward_ios_2" d="M9.99984 11.1667L4.12484 5.29167C3.93039 5.09722 3.69428 5 3.4165 5C3.13873 5 2.90262 5.09722 2.70817 5.29167C2.51373 5.48611 2.4165 5.72222 2.4165 6C2.4165 6.27778 2.51373 6.51389 2.70817 6.70833L8.93734 12.9375C9.09011 13.0903 9.25678 13.2014 9.43734 13.2708C9.61789 13.3403 9.80539 13.375 9.99984 13.375C10.1943 13.375 10.3818 13.3403 10.5623 13.2708C10.7429 13.2014 10.9096 13.0903 11.0623 12.9375L17.2915 6.70833C17.4859 6.51389 17.5832 6.27778 17.5832 6C17.5832 5.72222 17.4859 5.48611 17.2915 5.29167C17.0971 5.09722 16.8609 5 16.5832 5C16.3054 5 16.0693 5.09722 15.8748 5.29167L9.99984 11.1667Z" fill="#6A737B"/>
</g>
</g>
</svg>
