<svg width="20" height="20" viewBox="0 0 20 20" fill="none" xmlns="http://www.w3.org/2000/svg">
<g id="edit_note">
<mask id="mask0_1316_2210" style="mask-type:alpha" maskUnits="userSpaceOnUse" x="0" y="0" width="20" height="20">
<rect id="Bounding box" width="20" height="20" fill="#D9D9D9"/>
</mask>
<g mask="url(#mask0_1316_2210)">
<path id="edit_note_2" d="M4.75 11.75C4.5375 11.75 4.35938 11.6785 4.21563 11.5356C4.07188 11.3927 4 11.2156 4 11.0044C4 10.7931 4.07188 10.6146 4.21563 10.4688C4.35938 10.3229 4.5375 10.25 4.75 10.25H9.25C9.4625 10.25 9.64062 10.3215 9.78438 10.4644C9.92813 10.6073 10 10.7844 10 10.9956C10 11.2069 9.92813 11.3854 9.78438 11.5312C9.64062 11.6771 9.4625 11.75 9.25 11.75H4.75ZM4.75 8.625C4.5375 8.625 4.35938 8.55355 4.21563 8.41065C4.07188 8.26773 4 8.09065 4 7.8794C4 7.66813 4.07188 7.48958 4.21563 7.34375C4.35938 7.19792 4.5375 7.125 4.75 7.125H12.25C12.4625 7.125 12.6406 7.19645 12.7844 7.33935C12.9281 7.48227 13 7.65935 13 7.8706C13 8.08187 12.9281 8.26042 12.7844 8.40625C12.6406 8.55208 12.4625 8.625 12.25 8.625H4.75ZM4.75 5.5C4.5375 5.5 4.35938 5.42855 4.21563 5.28565C4.07188 5.14273 4 4.96565 4 4.7544C4 4.54313 4.07188 4.36458 4.21563 4.21875C4.35938 4.07292 4.5375 4 4.75 4H12.25C12.4625 4 12.6406 4.07145 12.7844 4.21435C12.9281 4.35727 13 4.53435 13 4.7456C13 4.95687 12.9281 5.13542 12.7844 5.28125C12.6406 5.42708 12.4625 5.5 12.25 5.5H4.75ZM11 15.25V13.9493C11 13.8442 11.0208 13.7465 11.0625 13.6562C11.1042 13.566 11.1597 13.4861 11.2292 13.4167L15.375 9.29167C15.4758 9.18872 15.5878 9.11438 15.711 9.06863C15.8342 9.02288 15.9567 9 16.0783 9C16.211 9 16.3382 9.02431 16.4599 9.07292C16.5815 9.12153 16.6921 9.19444 16.7917 9.29167L17.7083 10.2292C17.7998 10.33 17.8713 10.442 17.9228 10.5652C17.9743 10.6884 18 10.8108 18 10.9325C18 11.0541 17.9771 11.1786 17.9314 11.3057C17.8856 11.4329 17.8113 11.5463 17.7083 11.6458L13.5833 15.7708C13.5139 15.8403 13.434 15.8958 13.3438 15.9375C13.2535 15.9792 13.1558 16 13.0507 16H11.75C11.5375 16 11.3594 15.9281 11.2156 15.7844C11.0719 15.6406 11 15.4625 11 15.25ZM12 15H12.9375L15.3333 12.6042L14.875 12.125L14.4167 11.6667L12 14.0625V15ZM14.875 12.125L14.4167 11.6667L15.3333 12.6042L14.875 12.125Z" fill="#6A737B"/>
</g>
</g>
</svg>
