<svg xmlns="http://www.w3.org/2000/svg" width="69" height="70" viewBox="0 0 69 70" fill="none">
  <path d="M45.549 17.1523L31.8767 26.1314L35.3003 10.1366C36.3029 5.45245 41.7483 3.29585 45.6862 6.02326C49.5983 8.73282 49.5267 14.5401 45.549 17.1523Z" stroke="#44C1FA" stroke-width="2.67294"/>
  <path d="M17.2632 17.1523L30.9356 26.1314L27.5119 10.1366C26.5093 5.45245 21.064 3.29585 17.1261 6.02326C13.2139 8.73282 13.2855 14.5401 17.2632 17.1523Z" stroke="#44C1FA" stroke-width="2.67294"/>
  <path d="M0.0688477 31.7412C0.0688477 28.0506 3.06063 25.0588 6.75119 25.0588H54.8641V69.8305H6.7512C3.06064 69.8305 0.0688477 66.8387 0.0688477 63.1482V31.7412Z" fill="#B1E3FE"/>
  <path d="M29.3677 33.3821L32.2316 46.3414L19.5765 42.342L29.3677 33.3821Z" fill="white"/>
  <rect x="36.8879" y="55.4724" width="21.7993" height="10.8997" transform="rotate(-28.3941 36.8879 55.4724)" fill="#E0F5FF"/>
  <mask id="mask0_355_4635" style="mask-type:alpha" maskUnits="userSpaceOnUse" x="0" y="25" width="27" height="45">
    <rect y="25.1641" width="26.4655" height="43.999" transform="rotate(-0.227785 0 25.1641)" fill="#B8EAA5"/>
  </mask>
  <g mask="url(#mask0_355_4635)">
    <circle cx="2.11686" cy="54.5838" r="8.94684" transform="rotate(-0.227785 2.11686 54.5838)" fill="#7BD2FC"/>
  </g>
  <path d="M54.864 25.0588H62.2146C65.9051 25.0588 68.8969 28.0506 68.8969 31.7412V63.1482C68.8969 66.8388 65.9051 69.8305 62.2146 69.8305H54.864V25.0588Z" fill="#44C1FA"/>
</svg>