<svg xmlns="http://www.w3.org/2000/svg" width="20" height="21" viewBox="0 0 20 21" fill="none">
  <mask id="mask0_418_2409" style="mask-type:alpha" maskUnits="userSpaceOnUse" x="0" y="0" width="20" height="21">
    <rect y="0.5" width="20" height="20" fill="#D9D9D9"/>
  </mask>
  <g mask="url(#mask0_418_2409)">
    <path d="M11.1667 10.5001L5.29167 4.62508C5.09722 4.43064 5 4.19453 5 3.91675C5 3.63897 5.09722 3.40286 5.29167 3.20841C5.48611 3.01397 5.72222 2.91675 6 2.91675C6.27778 2.91675 6.51389 3.01397 6.70833 3.20841L12.9375 9.43758C13.0903 9.59036 13.2014 9.75703 13.2708 9.93758C13.3403 10.1181 13.375 10.3056 13.375 10.5001C13.375 10.6945 13.3403 10.882 13.2708 11.0626C13.2014 11.2431 13.0903 11.4098 12.9375 11.5626L6.70833 17.7917C6.51389 17.9862 6.27778 18.0834 6 18.0834C5.72222 18.0834 5.48611 17.9862 5.29167 17.7917C5.09722 17.5973 5 17.3612 5 17.0834C5 16.8056 5.09722 16.5695 5.29167 16.3751L11.1667 10.5001Z" fill="white"/>
  </g>
</svg>