<svg xmlns="http://www.w3.org/2000/svg" width="73" height="28" viewBox="0 0 73 28" fill="none">
  <path d="M57.5095 16.2292C56.0294 14.5617 54.5822 10.8343 54.0559 8.87246V6.02783H56.8188C57.1345 8.46048 58.3975 10.9651 58.9896 11.9133L60.667 18.7796L58.9896 28.0001H55.4373L57.5095 16.2292Z" fill="#0098E8"/>
  <path fill-rule="evenodd" clip-rule="evenodd" d="M39.4724 14.3136V6.02783H42.8459V14.3136C42.8459 16.4711 44.6001 18.22 46.7641 18.22C48.928 18.22 50.6823 16.4711 50.6823 14.3136V6.02783H54.0558V14.3136C54.0558 18.3286 50.7912 21.5834 46.7641 21.5834C42.737 21.5834 39.4724 18.3286 39.4724 14.3136Z" fill="#0098E8"/>
  <path fill-rule="evenodd" clip-rule="evenodd" d="M30.0784 21.5834C34.1256 21.5834 37.4065 18.1012 37.4065 13.8056C37.4065 9.51007 34.1256 6.02783 30.0784 6.02783C26.0312 6.02783 22.7502 9.51007 22.7502 13.8056C22.7502 18.1012 26.0312 21.5834 30.0784 21.5834ZM29.6413 17.6396C31.7555 17.6396 33.4694 15.923 33.4694 13.8055C33.4694 11.688 31.7555 9.97138 29.6413 9.97138C27.5271 9.97138 25.8132 11.688 25.8132 13.8055C25.8132 15.923 27.5271 17.6396 29.6413 17.6396Z" fill="#2A2F34"/>
  <path fill-rule="evenodd" clip-rule="evenodd" d="M65.4675 21.5834C69.5148 21.5834 72.7957 18.1012 72.7957 13.8056C72.7957 9.51007 69.5148 6.02783 65.4675 6.02783C61.4203 6.02783 58.1394 9.51007 58.1394 13.8056C58.1394 18.1012 61.4203 21.5834 65.4675 21.5834ZM65.0302 17.6396C67.1444 17.6396 68.8583 15.923 68.8583 13.8055C68.8583 11.688 67.1444 9.97138 65.0302 9.97138C62.916 9.97138 61.202 11.688 61.202 13.8055C61.202 15.923 62.916 17.6396 65.0302 17.6396Z" fill="#0098E8"/>
  <rect x="0.194824" y="6.02783" width="11.8611" height="3.50001" fill="#2A2F34"/>
  <rect x="18.667" y="6.02783" width="15.5556" height="3.50001" transform="rotate(90 18.667 6.02783)" fill="#2A2F34"/>
  <rect x="25.2781" y="6.02783" width="21.9723" height="3.50001" transform="rotate(90 25.2781 6.02783)" fill="#2A2F34"/>
  <path d="M12.0557 9.55093L2.9169 19.9308L0.00022633 18.0835L9.52798 7.21757L12.0557 9.55093Z" fill="#2A2F34"/>
  <rect x="0.000244141" y="18.0833" width="12.0556" height="3.50001" fill="#2A2F34"/>
  <ellipse cx="17.0142" cy="2.23612" rx="2.23612" ry="2.23612" fill="#2A2F34"/>
</svg>