<svg width="57" height="56" viewBox="0 0 57 56" fill="none" xmlns="http://www.w3.org/2000/svg">
<circle cx="28.5" cy="28" r="28" fill="#FCE5ED"/>
<path d="M46 38.5C46 40.433 44.433 42 42.5 42L14.5 42C12.567 42 11 40.433 11 38.5L11 17.5C11 15.567 12.567 14 14.5 14L42.5 14C44.433 14 46 15.567 46 17.5L46 38.5Z" fill="#F7BFD2"/>
<path d="M27.9645 23.8591L28.5 24.3945L29.0353 23.8592C30.5141 22.3804 32.912 22.3805 34.3909 23.8593C35.8697 25.3381 35.8697 27.7358 34.3909 29.2146L34.3594 29.2458L29.7375 33.8678C29.0541 34.5512 27.946 34.5513 27.2626 33.8678L22.6251 29.2303L22.6091 29.2144C21.1303 27.7356 21.1303 25.3379 22.6091 23.8591C24.088 22.3803 26.4857 22.3803 27.9645 23.8591Z" fill="#EB5281"/>
</svg>
