<svg xmlns="http://www.w3.org/2000/svg" width="134" height="80" viewBox="0 0 134 80" fill="none">
  <path d="M28.1708 59.8896C29.0025 59.2694 30.0122 58.9343 31.0496 58.9343L58.8111 58.9343C61.4705 58.9343 63.6264 61.0902 63.6264 63.7496V74.1834C63.6264 76.8428 61.4705 78.9987 58.8111 78.9987H31.0496C30.0122 78.9987 29.0025 78.6636 28.1708 78.0434L17.7253 70.2532C16.8646 69.6113 16.8646 68.3217 17.7253 67.6798L28.1708 59.8896Z" fill="#22CEFF"/>
  <path d="M63.6262 36.0138C63.6262 34.7354 64.1345 33.5095 65.0391 32.6063L82.9107 14.7611C84.7906 12.884 87.8356 12.884 89.7156 14.7611L107.587 32.6063C108.492 33.5095 109 34.7354 109 36.0138V79.0001H63.6262V36.0138Z" fill="#E0F5FF"/>
  <rect x="76.1768" y="40.4189" width="8.94159" height="8.99213" fill="white"/>
  <path d="M76.1768 38.154C76.1768 33.2157 80.18 29.1619 85.1184 29.1619V38.154H76.1768Z" fill="white"/>
  <rect x="87.761" y="40.4189" width="8.94159" height="8.99213" fill="white"/>
  <path d="M87.4397 29.1616C92.378 29.1616 96.3813 33.2154 96.3813 38.1538H87.4397V29.1616Z" fill="white"/>
  <rect x="30.8032" y="65.084" width="25.1004" height="7.76686" fill="#0098E8"/>
  <path d="M56.9833 29.5924L49.4238 34.585L51.3106 25.7207C51.8625 23.1277 54.8781 21.9375 57.0547 23.4535C59.2066 24.9524 59.1694 28.1486 56.9833 29.5924Z" stroke="#44C1FA" stroke-width="1.46962"/>
  <path d="M41.3454 29.5924L48.9048 34.585L47.018 25.7207C46.4662 23.1277 43.4506 21.9375 41.2739 23.4535C39.1221 24.9524 39.1592 28.1486 41.3454 29.5924Z" stroke="#44C1FA" stroke-width="1.46962"/>
  <path d="M34.9861 37.7126C34.9861 35.6835 36.631 34.0386 38.6601 34.0386H55.9031V58.9572H38.6601C36.631 58.9572 34.9861 57.3123 34.9861 55.2832V37.7126Z" fill="#B1E3FE"/>
  <path d="M47.9949 36.2881L49.5734 43.471L42.5986 41.2543L47.9949 36.2881Z" fill="white"/>
  <rect width="12.0301" height="6.03362" transform="matrix(0.878572 -0.47761 0.473462 0.880814 45.9844 50.8462)" fill="#E0F5FF"/>
  <mask id="mask0_418_2419" style="mask-type:alpha" maskUnits="userSpaceOnUse" x="34" y="33" width="16" height="26">
    <rect width="14.5864" height="24.387" transform="matrix(0.999992 -0.00399806 0.00395325 0.999992 34.9861 34.0486)" fill="#B8EAA5"/>
  </mask>
  <g mask="url(#mask0_418_2419)">
    <ellipse cx="4.93103" cy="4.9589" rx="4.93103" ry="4.9589" transform="matrix(0.999992 -0.00399806 0.00395325 0.999992 31.2024 45.4153)" fill="#7BD2FC"/>
  </g>
  <path d="M55.9031 34.0161H59.9522C61.9814 34.0161 63.6263 35.661 63.6263 37.6902V55.2607C63.6263 57.2898 61.9814 58.9348 59.9522 58.9348H55.9031V34.0161Z" fill="#44C1FA"/>
  <mask id="mask1_418_2419" style="mask-type:alpha" maskUnits="userSpaceOnUse" x="17" y="58" width="47" height="21">
    <path d="M28.1708 59.8896C29.0025 59.2694 30.0122 58.9343 31.0496 58.9343L58.8111 58.9343C61.4705 58.9343 63.6264 61.0902 63.6264 63.7496V74.1834C63.6264 76.8428 61.4705 78.9987 58.8111 78.9987H31.0496C30.0122 78.9987 29.0025 78.6636 28.1708 78.0434L17.7253 70.2532C16.8646 69.6113 16.8646 68.3217 17.7253 67.6798L28.1708 59.8896Z" fill="#22CEFF"/>
  </mask>
  <g mask="url(#mask1_418_2419)">
    <path fill-rule="evenodd" clip-rule="evenodd" d="M27.8577 80.5367V86.2092L8.2771 73.358L27.8577 54.0813V57.4737C28.1251 57.4243 28.4007 57.3984 28.6823 57.3984C31.1867 57.3984 33.2168 59.4401 33.2168 61.9585C33.2168 63.3778 32.572 64.6457 31.5609 65.4821C32.572 66.3184 33.2168 67.5863 33.2168 69.0056C33.2168 70.4247 32.5722 71.6924 31.5615 72.5287C32.5722 73.3651 33.2168 74.6327 33.2168 76.0518C33.2168 78.5703 31.1867 80.6119 28.6823 80.6119C28.4007 80.6119 28.1251 80.5861 27.8577 80.5367Z" fill="#FFE1DF"/>
  </g>
  <mask id="mask2_418_2419" style="mask-type:alpha" maskUnits="userSpaceOnUse" x="17" y="58" width="47" height="21">
    <path d="M28.1708 59.8896C29.0025 59.2694 30.0122 58.9343 31.0496 58.9343L58.8111 58.9343C61.4705 58.9343 63.6264 61.0902 63.6264 63.7496V74.1834C63.6264 76.8428 61.4706 78.9987 58.8111 78.9987H31.0496C30.0122 78.9987 29.0025 78.6636 28.1708 78.0434L17.7253 70.2532C16.8646 69.6113 16.8646 68.3217 17.7253 67.6798L28.1708 59.8896Z" fill="#22CEFF"/>
  </mask>
  <g mask="url(#mask2_418_2419)">
    <ellipse cx="12.7821" cy="68.9666" rx="8.36681" ry="8.41409" fill="#1E2025"/>
  </g>
  <path d="M55.9031 58.9343L58.811 58.9343C61.4704 58.9343 63.6263 61.0902 63.6263 63.7496V78.9987H55.9031L55.9031 68.9665L55.9031 58.9343Z" fill="#66DDFF"/>
  <path d="M55.9031 58.9343L52.0415 58.9343V78.9987H55.9031L55.9031 68.9665L55.9031 58.9343Z" fill="#AFEDFF"/>
  <path d="M76.1768 66.3201C76.1768 60.6329 80.7872 56.0225 86.4744 56.0225C92.1616 56.0225 96.772 60.6329 96.772 66.3201V78.9994H76.1768V66.3201Z" fill="#7BD2FC"/>
  <ellipse cx="81.3249" cy="68.9657" rx="2.5744" ry="2.58895" fill="white"/>
  <ellipse cx="81.3249" cy="68.9657" rx="2.5744" ry="2.58895" fill="#0098E8"/>
</svg>