<svg xmlns="http://www.w3.org/2000/svg" width="16" height="16" viewBox="0 0 16 16" fill="none">
  <mask id="mask0_3320_4721" style="mask-type:alpha" maskUnits="userSpaceOnUse" x="0" y="0" width="16" height="16">
    <rect width="16" height="16" fill="#D9D9D9"/>
  </mask>
  <g mask="url(#mask0_3320_4721)">
    <path d="M7.99658 11.1996C8.16559 11.1996 8.30843 11.1421 8.4251 11.0271C8.54176 10.9121 8.6001 10.7696 8.6001 10.5996V7.79961C8.6001 7.62961 8.54294 7.48711 8.42862 7.37211C8.31428 7.25711 8.17262 7.19961 8.00361 7.19961C7.8346 7.19961 7.69176 7.25711 7.5751 7.37211C7.45843 7.48711 7.4001 7.62961 7.4001 7.79961V10.5996C7.4001 10.7696 7.45726 10.9121 7.57158 11.0271C7.68591 11.1421 7.82758 11.1996 7.99658 11.1996ZM7.99658 5.99961C8.16559 5.99961 8.30843 5.94245 8.4251 5.82813C8.54176 5.71379 8.6001 5.57213 8.6001 5.40313C8.6001 5.23412 8.54294 5.09128 8.42862 4.97461C8.31428 4.85794 8.17262 4.79961 8.00361 4.79961C7.8346 4.79961 7.69176 4.85677 7.5751 4.97109C7.45843 5.08543 7.4001 5.22709 7.4001 5.39609C7.4001 5.5651 7.45726 5.70794 7.57158 5.82461C7.68591 5.94128 7.82758 5.99961 7.99658 5.99961ZM8.0047 14.3996C7.12385 14.3996 6.29454 14.2329 5.51676 13.8996C4.73899 13.5663 4.05843 13.1079 3.4751 12.5246C2.89176 11.9413 2.43343 11.261 2.1001 10.4836C1.76676 9.70632 1.6001 8.87577 1.6001 7.99198C1.6001 7.10818 1.76676 6.28017 2.1001 5.50794C2.43343 4.73572 2.89176 4.05794 3.4751 3.47461C4.05843 2.89128 4.73875 2.43294 5.51606 2.09961C6.29339 1.76628 7.12394 1.59961 8.00773 1.59961C8.89153 1.59961 9.71954 1.76628 10.4918 2.09961C11.264 2.43294 11.9418 2.89128 12.5251 3.47461C13.1084 4.05794 13.5668 4.73696 13.9001 5.51168C14.2334 6.2864 14.4001 7.11418 14.4001 7.99501C14.4001 8.87585 14.2334 9.70516 13.9001 10.4829C13.5668 11.2607 13.1084 11.9413 12.5251 12.5246C11.9418 13.1079 11.2627 13.5663 10.488 13.8996C9.71331 14.2329 8.88553 14.3996 8.0047 14.3996ZM8.0001 13.1996C9.44454 13.1996 10.6723 12.6941 11.6834 11.6829C12.6945 10.6718 13.2001 9.44405 13.2001 7.99961C13.2001 6.55516 12.6945 5.32739 11.6834 4.31628C10.6723 3.30517 9.44454 2.79961 8.0001 2.79961C6.55565 2.79961 5.32788 3.30517 4.31676 4.31628C3.30565 5.32739 2.8001 6.55516 2.8001 7.99961C2.8001 9.44405 3.30565 10.6718 4.31676 11.6829C5.32788 12.6941 6.55565 13.1996 8.0001 13.1996Z" fill="#0098E8"/>
  </g>
</svg>