<svg xmlns="http://www.w3.org/2000/svg" width="134" height="80" viewBox="0 0 134 80" fill="none">
  <path d="M106.929 41.3348C106.929 38.3885 104.54 36 101.594 36H65.2637C62.3174 36 59.929 38.3885 59.929 41.3348V79H106.929V41.3348Z" fill="#B1E3FE"/>
  <path d="M59.929 55.1863C59.929 52.24 57.5405 49.8516 54.5942 49.8516H33.3325C30.3862 49.8516 27.9977 52.24 27.9977 55.1863V78.9992H59.929V55.1863Z" fill="#D7DCE0"/>
  <mask id="mask0_418_2563" style="mask-type:alpha" maskUnits="userSpaceOnUse" x="27" y="49" width="33" height="30">
    <rect width="32" height="30" rx="5.3575" transform="matrix(-1 0 0 1 59.929 49)" fill="#D7DCE0"/>
  </mask>
  <g mask="url(#mask0_418_2563)">
    <path d="M66.9927 34.7495H20.4315V56.0083L43.7121 68.7272L66.9927 56.0083V34.7495Z" fill="#EDF0F2"/>
  </g>
  <path d="M39.166 63.1742C37.8592 64.4302 37.8592 66.4666 39.166 67.7227L44.3718 72.726L49.5777 67.7227C50.8846 66.4666 50.8846 64.4302 49.5777 63.1742C48.2708 61.9182 46.152 61.9182 44.8451 63.1742L44.3719 63.629L43.8987 63.1742C42.5918 61.9182 40.4729 61.9182 39.166 63.1742Z" fill="#0098E8" stroke="#0098E8" stroke-width="0.711303" stroke-linejoin="round"/>
  <path d="M65.9585 19.1154C63.0338 19.0673 60.7033 21.3146 60.7532 24.1349L60.9517 35.3692L72.4215 35.3692C75.3462 35.4172 77.8573 33.3615 77.8074 30.5412C77.7575 27.7209 75.3462 25.3957 72.4215 25.3476L71.3625 25.3302L71.3444 24.309C71.2946 21.4887 68.8832 19.1635 65.9585 19.1154Z" fill="#22CEFF" stroke="#22CEFF" stroke-width="0.817998" stroke-linejoin="round"/>
  <path fill-rule="evenodd" clip-rule="evenodd" d="M43.6989 17.7234C52.9214 17.7234 60.3977 24.9328 60.3977 33.826C60.3977 42.7192 52.9214 49.9286 43.6989 49.9286C34.4765 49.9286 27.0002 42.7192 27.0002 33.826C27.0002 24.9328 34.4765 17.7234 43.6989 17.7234Z" fill="#E0F5FF"/>
  <path fill-rule="evenodd" clip-rule="evenodd" d="M46.2039 30.2035C46.2039 31.3151 47.1384 32.2163 48.2912 32.2163C49.444 32.2163 50.3786 31.3151 50.3786 30.2035C50.3786 29.0918 49.444 28.1907 48.2912 28.1907C47.1384 28.1907 46.2039 29.0918 46.2039 30.2035ZM50.5451 35.7591C49.8073 35.2255 48.7606 35.3697 48.2073 36.0812C47.9988 36.3493 47.4527 36.8084 46.5918 37.2038C45.7583 37.5865 44.7501 37.8525 43.6986 37.8525C42.6471 37.8525 41.6389 37.5865 40.8054 37.2038C39.9445 36.8084 39.3984 36.3493 39.1899 36.0812C38.6366 35.3697 37.5899 35.2255 36.8521 35.7591C36.1143 36.2927 35.9648 37.302 36.5181 38.0135C37.1446 38.8189 38.1849 39.5675 39.3696 40.1114C40.5817 40.668 42.0783 41.073 43.6986 41.073C45.3189 41.073 46.8155 40.668 48.0276 40.1114C49.2123 39.5675 50.2526 38.8189 50.8791 38.0135C51.4324 37.302 51.2829 36.2927 50.5451 35.7591ZM39.1068 32.2163C37.954 32.2163 37.0195 31.3151 37.0195 30.2035C37.0195 29.0918 37.954 28.1907 39.1068 28.1907C40.2596 28.1907 41.1942 29.0918 41.1942 30.2035C41.1942 31.3151 40.2596 32.2163 39.1068 32.2163Z" fill="#7BD2FC"/>
  <path d="M82.9873 30.278L91.5943 35.7286L89.3921 25.8078C88.7426 22.8819 85.3501 21.5093 82.867 23.1677C80.3223 24.8673 80.386 28.6306 82.9873 30.278Z" stroke="#02B3FA" stroke-width="1.77826" stroke-linejoin="round"/>
  <path d="M100.806 30.278L92.1992 35.7286L94.4014 25.8078C95.0508 22.8819 98.4433 21.5093 100.926 23.1677C103.471 24.8673 103.407 28.6306 100.806 30.278Z" stroke="#02B3FA" stroke-width="1.77826" stroke-linejoin="round"/>
  <path d="M75.7322 38.7926L72.8362 51.4295L85.6332 47.5296L75.7322 38.7926Z" fill="white"/>
  <path d="M81.7866 65.8779L59.929 54.6555L59.9289 68.4999L75.8623 76.4461L81.7866 65.8779Z" fill="#E0F5FF"/>
  <mask id="mask1_418_2563" style="mask-type:alpha" maskUnits="userSpaceOnUse" x="86" y="30" width="21" height="49">
    <rect width="20.0474" height="48.4948" transform="matrix(-0.999993 -0.00383366 -0.00412278 0.999992 106.929 30.5056)" fill="#B8EAA5"/>
  </mask>
  <g mask="url(#mask1_418_2563)">
    <ellipse cx="10.2261" cy="9.86104" rx="10.2261" ry="9.86104" transform="matrix(-0.999993 -0.00383366 -0.00412278 0.999992 117.197 47.8374)" fill="#7BD2FC"/>
  </g>
  <rect width="2" height="43" transform="matrix(-1 0 0 1 92.929 36)" fill="#02B3FA"/>
  <path d="M59.929 54L59.929 56L106.929 56L106.929 54L59.929 54Z" fill="#02B3FA"/>
</svg>