<svg width="56" height="56" viewBox="0 0 56 56" fill="none" xmlns="http://www.w3.org/2000/svg">
<rect width="56" height="56" rx="28" fill="#E0F5FF"/>
<path d="M30.2856 15.1216C31.4572 13.95 33.3567 13.95 34.5283 15.1216L40.8922 21.4856C42.0638 22.6571 42.0638 24.5566 40.8922 25.7282L26.5309 40.0896L15.9242 29.483L30.2856 15.1216Z" fill="#44C1FA"/>
<path d="M15.8744 41.8657C14.8591 42.0349 13.979 41.1547 14.1482 40.1395L15.9242 29.483L26.5309 40.0896L15.8744 41.8657Z" fill="#B1E3FE"/>
<path d="M30.2856 15.1216C31.4572 13.95 33.3567 13.95 34.5283 15.1216L40.8922 21.4856C42.0638 22.6571 42.0638 24.5566 40.8922 25.7282L37.7103 28.9102L27.1037 18.3036L30.2856 15.1216Z" fill="#B1E3FE"/>
<path fill-rule="evenodd" clip-rule="evenodd" d="M14.1482 40.139C13.979 41.1542 14.8591 42.0344 15.8744 41.8652L21.0754 40.9983L15.015 34.938L14.1482 40.139Z" fill="#0098E8"/>
</svg>
