<svg xmlns="http://www.w3.org/2000/svg" width="16" height="16" viewBox="0 0 16 16" fill="none">
  <mask id="mask0_2590_6933" style="mask-type:alpha" maskUnits="userSpaceOnUse" x="0" y="0" width="16" height="16">
    <rect width="16" height="16" fill="#D9D9D9"/>
  </mask>
  <g mask="url(#mask0_2590_6933)">
    <path d="M7.99646 11.1996C8.16547 11.1996 8.30831 11.1421 8.42498 11.0271C8.54164 10.9121 8.59998 10.7696 8.59998 10.5996V7.79961C8.59998 7.62961 8.54282 7.48711 8.42849 7.37211C8.31416 7.25711 8.17249 7.19961 8.00349 7.19961C7.83448 7.19961 7.69164 7.25711 7.57498 7.37211C7.45831 7.48711 7.39998 7.62961 7.39998 7.79961V10.5996C7.39998 10.7696 7.45714 10.9121 7.57146 11.0271C7.68579 11.1421 7.82746 11.1996 7.99646 11.1996ZM7.99646 5.99961C8.16547 5.99961 8.30831 5.94245 8.42498 5.82813C8.54164 5.71379 8.59998 5.57213 8.59998 5.40313C8.59998 5.23412 8.54282 5.09128 8.42849 4.97461C8.31416 4.85794 8.17249 4.79961 8.00349 4.79961C7.83448 4.79961 7.69164 4.85677 7.57498 4.97109C7.45831 5.08543 7.39998 5.22709 7.39998 5.39609C7.39998 5.5651 7.45714 5.70794 7.57146 5.82461C7.68579 5.94128 7.82746 5.99961 7.99646 5.99961ZM8.00458 14.3996C7.12373 14.3996 6.29442 14.2329 5.51664 13.8996C4.73886 13.5663 4.05831 13.1079 3.47498 12.5246C2.89164 11.9413 2.43331 11.261 2.09998 10.4836C1.76664 9.70632 1.59998 8.87577 1.59998 7.99198C1.59998 7.10818 1.76664 6.28017 2.09998 5.50794C2.43331 4.73572 2.89164 4.05794 3.47498 3.47461C4.05831 2.89128 4.73863 2.43294 5.51594 2.09961C6.29326 1.76628 7.12382 1.59961 8.00761 1.59961C8.89141 1.59961 9.71942 1.76628 10.4916 2.09961C11.2639 2.43294 11.9416 2.89128 12.525 3.47461C13.1083 4.05794 13.5666 4.73696 13.9 5.51168C14.2333 6.2864 14.4 7.11418 14.4 7.99501C14.4 8.87585 14.2333 9.70516 13.9 10.4829C13.5666 11.2607 13.1083 11.9413 12.525 12.5246C11.9416 13.1079 11.2626 13.5663 10.4879 13.8996C9.71319 14.2329 8.88541 14.3996 8.00458 14.3996ZM7.99998 13.1996C9.44442 13.1996 10.6722 12.6941 11.6833 11.6829C12.6944 10.6718 13.2 9.44405 13.2 7.99961C13.2 6.55516 12.6944 5.32739 11.6833 4.31628C10.6722 3.30517 9.44442 2.79961 7.99998 2.79961C6.55553 2.79961 5.32775 3.30517 4.31664 4.31628C3.30553 5.32739 2.79998 6.55516 2.79998 7.99961C2.79998 9.44405 3.30553 10.6718 4.31664 11.6829C5.32775 12.6941 6.55553 13.1996 7.99998 13.1996Z" fill="#0098E8"/>
  </g>
</svg>