<svg xmlns="http://www.w3.org/2000/svg" width="32" height="32" viewBox="0 0 32 32" fill="none">
  <rect width="32" height="32" rx="16" fill="#E0F5FF"/>
  <path fill-rule="evenodd" clip-rule="evenodd" d="M23.054 9.67578H8.94604V22.8108C8.94604 24.4229 10.2529 25.7297 11.8649 25.7297H20.1351C21.7472 25.7297 23.054 24.4229 23.054 22.8108V9.67578Z" fill="#7BD2FC"/>
  <path fill-rule="evenodd" clip-rule="evenodd" d="M13.5674 6.27051C12.4927 6.27051 11.6215 7.14173 11.6215 8.21644V9.67645H7.97296C7.43561 9.67645 7 10.1121 7 10.6494C7 11.1868 7.43561 11.6224 7.97296 11.6224H24.0269C24.5642 11.6224 24.9998 11.1868 24.9998 10.6494C24.9998 10.1121 24.5642 9.67645 24.0269 9.67645H20.3782V8.21644C20.3782 7.14173 19.507 6.27051 18.4323 6.27051H13.5674ZM13.5674 8.21644H18.4323V9.67588H13.5674V8.21644Z" fill="#0098E8"/>
  <path fill-rule="evenodd" clip-rule="evenodd" d="M17.9459 14.54C18.4832 14.54 18.9188 14.9756 18.9188 15.513V20.3778C18.9188 20.9152 18.4832 21.3508 17.9459 21.3508C17.4085 21.3508 16.9729 20.9152 16.9729 20.3778V15.513C16.9729 14.9756 17.4085 14.54 17.9459 14.54Z" fill="#0098E8"/>
  <path fill-rule="evenodd" clip-rule="evenodd" d="M14.054 14.54C14.5914 14.54 15.027 14.9756 15.027 15.513V20.3778C15.027 20.9152 14.5914 21.3508 14.054 21.3508C13.5167 21.3508 13.0811 20.9152 13.0811 20.3778V15.513C13.0811 14.9756 13.5167 14.54 14.054 14.54Z" fill="#0098E8"/>
</svg>