<svg xmlns="http://www.w3.org/2000/svg" width="32" height="32" viewBox="0 0 32 32" fill="none">
  <rect width="32" height="32" rx="16" fill="#E0F5FF"/>
  <path d="M6.85718 13.4256C6.85718 12.6367 7.49677 11.9971 8.28575 11.9971H23.7143C24.5033 11.9971 25.1429 12.6367 25.1429 13.4256C25.1429 14.2146 24.5033 14.8542 23.7143 14.8542H8.28575C7.49677 14.8542 6.85718 14.2146 6.85718 13.4256Z" fill="#44C1FA"/>
  <path d="M8 14.8564H24V21.7136C24 22.976 22.9767 23.9993 21.7143 23.9993H10.2857C9.02335 23.9993 8 22.976 8 21.7136V14.8564Z" fill="#7BD2FC"/>
  <rect x="14.8572" y="11.9971" width="2.28571" height="12" fill="#0098E8"/>
  <path d="M12.2368 8.23488C12.6831 7.78857 13.4067 7.78857 13.853 8.23488L16.9317 11.3136L15.3155 12.9298L12.2368 9.85112C11.7905 9.40481 11.7905 8.68119 12.2368 8.23488Z" fill="#0098E8"/>
  <path d="M19.5523 8.23488C19.1059 7.78857 18.3823 7.78857 17.936 8.23488L14.8573 11.3136L16.4736 12.9298L19.5523 9.85112C19.9986 9.40481 19.9986 8.68119 19.5523 8.23488Z" fill="#0098E8"/>
</svg>