<svg xmlns="http://www.w3.org/2000/svg" width="32" height="32" viewBox="0 0 32 32" fill="none">
  <circle cx="16" cy="16" r="16" fill="#FCE5ED"/>
  <path d="M26 22C26 23.1046 25.1046 24 24 24L8 24C6.89543 24 6 23.1046 6 22L6 10C6 8.89543 6.89543 8 8 8L24 8C25.1046 8 26 8.89543 26 10L26 22Z" fill="#F7BFD2"/>
  <path d="M15.694 13.6338L16 13.9397L16.3059 13.6338C17.1509 12.7888 18.5212 12.7888 19.3662 13.6339C20.2113 14.4789 20.2113 15.849 19.3662 16.6941L19.3482 16.7119L16.7071 19.353C16.3166 19.7436 15.6834 19.7436 15.2929 19.353L12.6429 16.703L12.6338 16.694C11.7887 15.8489 11.7887 14.4788 12.6338 13.6338C13.4788 12.7887 14.8489 12.7887 15.694 13.6338Z" fill="#EB5281"/>
</svg>