<svg xmlns="http://www.w3.org/2000/svg" width="32" height="32" viewBox="0 0 32 32" fill="none">
  <rect width="32" height="32" rx="16" fill="#FCE5ED"/>
  <path d="M22.0855 11.6577C23.6096 13.1817 23.6096 15.6527 22.0855 17.1767L16.0147 23.2476L9.94381 17.1767C8.41977 15.6527 8.41977 13.1817 9.94381 11.6577C11.4678 10.1336 13.9388 10.1336 15.4628 11.6577L16.0147 12.2095L16.5665 11.6577C18.0905 10.1336 20.5615 10.1336 22.0855 11.6577Z" fill="#EB5281"/>
  <path fill-rule="evenodd" clip-rule="evenodd" d="M9.58008 11.2937C11.305 9.56877 14.1017 9.56877 15.8266 11.2937L16.0147 11.4818L16.2028 11.2937C17.9277 9.56877 20.7244 9.56877 22.4493 11.2937L22.0856 11.6575L22.4493 11.2937C24.1742 13.0186 24.1742 15.8153 22.4493 17.5402L16.3785 23.6112C16.282 23.7076 16.1512 23.7618 16.0148 23.7618C15.8783 23.7618 15.7475 23.7076 15.651 23.6112L9.58008 17.5402C7.85514 15.8153 7.85514 13.0186 9.58008 11.2937ZM15.0991 12.0212C13.776 10.6981 11.6307 10.6981 10.3076 12.0212C8.98444 13.3443 8.98444 15.4896 10.3076 16.8127L16.0148 22.5199L21.7218 16.8127L22.0856 17.1765L21.7218 16.8127C23.0449 15.4896 23.0449 13.3443 21.7218 12.0212C20.3987 10.6981 18.2534 10.6981 16.9303 12.0212L16.3784 12.573C16.1775 12.7739 15.8518 12.7739 15.6509 12.573L15.0991 12.0212Z" fill="#EB5281"/>
</svg>