<svg width="95" height="95" viewBox="0 0 95 95" fill="none" xmlns="http://www.w3.org/2000/svg">
<g id="Frame 16841">
<g id="Group 16831">
<path id="Exclude" fill-rule="evenodd" clip-rule="evenodd" d="M40.5 28C36.5888 29.2224 34.2229 32.6209 33.4847 36.6391C33.3556 37.3972 32.6473 37.9155 31.8857 37.8093L21 36.2913C22.0594 30.5278 33.2818 27.0968 39.5 28C39.7293 28.0333 40.2762 27.9544 40.5 28Z" fill="#0074C1"/>
<path id="Union" d="M74.8438 52.5771H54.5312V73.2803H72.1094V94.374H90.0781C92.2353 94.374 93.9844 92.625 93.9844 90.4678V77.1865C93.9844 75.0293 92.2353 73.2803 90.0781 73.2803H82.6562C80.4989 73.2803 78.75 71.5314 78.75 69.374V56.4834C78.75 54.326 77.001 52.5771 74.8438 52.5771Z" fill="#0098E8"/>
<path id="Rectangle 3344" d="M42.4219 56.4834C42.4219 54.326 44.1708 52.5771 46.3281 52.5771H56.6797C58.837 52.5771 60.5859 54.326 60.5859 56.4834V69.3174C60.5859 71.4747 62.3348 73.2236 64.4922 73.2236H74.8438C77.0011 73.2236 78.75 74.9725 78.75 77.1299V94.374H46.3281C44.1708 94.374 42.4219 92.6251 42.4219 90.4678V56.4834Z" fill="#22CEFF"/>
<path id="Rectangle 3345" d="M0.625 70.7412C0.625 60.7095 8.75733 52.5771 18.7891 52.5771C28.8208 52.5771 36.9531 60.7095 36.9531 70.7412V90.5743C36.9531 92.6728 35.2519 94.374 33.1534 94.374H4.42472C2.32619 94.374 0.625 92.6728 0.625 90.5743V70.7412Z" fill="#9BE181"/>
<circle id="Ellipse 1299" cx="25.8203" cy="75.4287" r="5.27344" fill="#329830"/>
<path id="Vector 1455" d="M91.9218 47.1637L78.9372 45.1255L43.5 1.00019L58.3548 2.9076C59.3194 3.03147 60.1944 3.50888 60.8088 4.24658L93.8406 43.9057C95.0135 45.3139 93.7546 47.4514 91.9218 47.1637Z" fill="#0074C1"/>
<path id="Exclude_2" fill-rule="evenodd" clip-rule="evenodd" d="M1.21324 28.7036C-0.865585 30.1125 -0.136948 33.1856 2.36428 33.5589L24.244 36.8253C25.2892 36.9814 26.2518 36.2672 26.621 35.277C28.4348 30.4131 33.6938 27.2351 39.1913 28.0557C44.6451 28.87 48.5058 33.3468 48.5912 38.4349C48.6097 39.5355 49.3291 40.5704 50.4178 40.7329L79 45L46.6337 2.56543C45.3389 0.867396 42.8337 0.493346 41.0145 1.72641L1.21324 28.7036Z" fill="#0098E8"/>
</g>
</g>
</svg>
