<svg width="24" height="24" viewBox="0 0 24 24" fill="none" xmlns="http://www.w3.org/2000/svg">
<rect width="24" height="24" rx="12" fill="#D7DCE0"/>
<path fill-rule="evenodd" clip-rule="evenodd" d="M12 4C7.58172 4 4 7.58172 4 12C4 16.4183 7.58172 20 12 20C16.4183 20 20 16.4183 20 12C20 7.58172 16.4183 4 12 4ZM10.7999 10.2001C10.7999 10.7523 10.3522 11.2001 9.79994 11.2001C9.24766 11.2001 8.79994 10.7523 8.79994 10.2001C8.79994 9.64777 9.24766 9.20006 9.79994 9.20006C10.3522 9.20006 10.7999 9.64777 10.7999 10.2001ZM8.72016 12.9601C9.07362 12.695 9.57506 12.7666 9.84016 13.1201C9.94005 13.2533 10.2016 13.4814 10.6141 13.6778C11.0134 13.8679 11.4964 14.0001 12.0002 14.0001C12.5039 14.0001 12.9869 13.8679 13.3862 13.6778C13.7987 13.4814 14.0603 13.2533 14.1602 13.1201C14.4253 12.7666 14.9267 12.695 15.2802 12.9601C15.6336 13.2252 15.7053 13.7266 15.4402 14.0801C15.14 14.4802 14.6416 14.8521 14.0741 15.1224C13.4934 15.3989 12.7764 15.6001 12.0002 15.6001C11.2239 15.6001 10.5069 15.3989 9.92621 15.1224C9.35867 14.8521 8.86027 14.4802 8.56016 14.0801C8.29506 13.7266 8.3667 13.2252 8.72016 12.9601ZM14.2001 11.2001C14.7523 11.2001 15.2001 10.7523 15.2001 10.2001C15.2001 9.64777 14.7523 9.20006 14.2001 9.20006C13.6478 9.20006 13.2001 9.64777 13.2001 10.2001C13.2001 10.7523 13.6478 11.2001 14.2001 11.2001Z" fill="#A7AFB7"/>
</svg>
