<svg width="24" height="24" viewBox="0 0 24 24" fill="none" xmlns="http://www.w3.org/2000/svg">
<rect width="24" height="24" rx="12" fill="#7BD2FC"/>
<path d="M17.6755 7.78651C19.0976 9.20856 19.0976 11.5142 17.6755 12.9362L12.011 18.6009L6.34632 12.9362C4.92427 11.5142 4.92427 9.20856 6.34632 7.78651C7.76837 6.36446 10.074 6.36446 11.496 7.78651L12.0109 8.30142L12.5258 7.78651C13.9479 6.36446 16.2535 6.36446 17.6755 7.78651Z" fill="#0098E8"/>
<path fill-rule="evenodd" clip-rule="evenodd" d="M6.00693 7.44712C7.61643 5.83761 10.226 5.83761 11.8355 7.44712L12.0109 7.62261L12.1864 7.44712C13.7959 5.83761 16.4055 5.83762 18.015 7.44712L17.6756 7.78653L18.015 7.44712C19.6245 9.05662 19.6245 11.6661 18.015 13.2756L12.3504 18.9403C12.2604 19.0303 12.1383 19.0809 12.011 19.0809C11.8837 19.0809 11.7616 19.0303 11.6716 18.9403L6.00693 13.2756C4.39743 11.6661 4.39743 9.05662 6.00693 7.44712ZM11.1566 8.12594C9.92203 6.89134 7.92035 6.89134 6.68575 8.12594C5.45116 9.36054 5.45116 11.3622 6.68575 12.5968L12.011 17.9221L17.3361 12.5968L17.6756 12.9362L17.3361 12.5968C18.5707 11.3622 18.5707 9.36054 17.3361 8.12594C16.1015 6.89134 14.0999 6.89134 12.8653 8.12594L12.3504 8.64085C12.1629 8.8283 11.859 8.8283 11.6715 8.64085L11.1566 8.12594Z" fill="#0098E8"/>
</svg>
