<svg width="24" height="24" viewBox="0 0 24 24" fill="none" xmlns="http://www.w3.org/2000/svg">
<rect width="24" height="24" rx="12" fill="#7BD2FC"/>
<path fill-rule="evenodd" clip-rule="evenodd" d="M12.0755 4.90479L14.7302 9.69663L19.3279 12.463L14.7297 15.2297L12.0752 20.0212L9.42054 15.2294L4.82275 12.463L9.42094 9.69636L12.0755 4.90479Z" fill="#0098E8"/>
<path d="M14.7302 9.69663L14.2928 9.93894C14.3353 10.0157 14.3972 10.0798 14.4724 10.1251L14.7302 9.69663ZM12.0755 4.90479L12.5128 4.66248C12.4247 4.50346 12.2573 4.40479 12.0755 4.40479C11.8937 4.40479 11.7262 4.50346 11.6381 4.66248L12.0755 4.90479ZM19.3279 12.463L19.5857 12.8914C19.736 12.801 19.8279 12.6384 19.8279 12.463C19.8279 12.2876 19.736 12.125 19.5857 12.0346L19.3279 12.463ZM14.7297 15.2297L14.4719 14.8013C14.3967 14.8465 14.3348 14.9107 14.2923 14.9874L14.7297 15.2297ZM12.0752 20.0212L11.6378 20.2635C11.7259 20.4225 11.8934 20.5212 12.0752 20.5212C12.257 20.5212 12.4244 20.4225 12.5125 20.2635L12.0752 20.0212ZM9.42054 15.2294L9.85791 14.9871C9.81541 14.9104 9.75347 14.8462 9.67832 14.801L9.42054 15.2294ZM4.82275 12.463L4.56498 12.0346C4.41467 12.125 4.32275 12.2876 4.32275 12.463C4.32275 12.6384 4.41467 12.801 4.56498 12.8914L4.82275 12.463ZM9.42094 9.69636L9.67872 10.1248C9.75387 10.0796 9.81581 10.0154 9.85831 9.93866L9.42094 9.69636ZM15.1675 9.45433L12.5128 4.66248L11.6381 5.14709L14.2928 9.93894L15.1675 9.45433ZM19.5857 12.0346L14.9879 9.26821L14.4724 10.1251L19.0701 12.8914L19.5857 12.0346ZM14.9874 15.6581L19.5857 12.8914L19.0701 12.0346L14.4719 14.8013L14.9874 15.6581ZM12.5125 20.2635L15.167 15.472L14.2923 14.9874L11.6378 19.7789L12.5125 20.2635ZM8.98318 15.4717L11.6378 20.2635L12.5125 19.7789L9.85791 14.9871L8.98318 15.4717ZM4.56498 12.8914L9.16277 15.6579L9.67832 14.801L5.08053 12.0346L4.56498 12.8914ZM9.16316 9.26793L4.56498 12.0346L5.08053 12.8914L9.67872 10.1248L9.16316 9.26793ZM11.6381 4.66248L8.98357 9.45406L9.85831 9.93866L12.5128 5.14709L11.6381 4.66248Z" fill="#0098E8"/>
</svg>
