<svg width="16" height="16" viewBox="0 0 16 16" fill="none" xmlns="http://www.w3.org/2000/svg">
<rect width="16" height="16" rx="4" fill="#0098E8"/>
<mask id="mask0_234_1718" style="mask-type:alpha" maskUnits="userSpaceOnUse" x="0" y="0" width="16" height="16">
<rect width="16" height="16" fill="#D9D9D9"/>
</mask>
<g mask="url(#mask0_234_1718)">
<path d="M6.48916 9.83926L11.5742 4.75426C11.6942 4.63426 11.8367 4.57426 12.0017 4.57426C12.1667 4.57426 12.3092 4.63426 12.4292 4.75426C12.5492 4.87426 12.6092 5.01676 12.6092 5.18176C12.6092 5.34676 12.5492 5.48926 12.4292 5.60926L6.90916 11.1293C6.78916 11.2493 6.64916 11.3093 6.48916 11.3093C6.32916 11.3093 6.18916 11.2493 6.06916 11.1293L3.48916 8.54926C3.36916 8.42926 3.31166 8.28676 3.31666 8.12176C3.32166 7.95676 3.38416 7.81426 3.50416 7.69426C3.62416 7.57426 3.76666 7.51426 3.93166 7.51426C4.09666 7.51426 4.23916 7.57426 4.35916 7.69426L6.48916 9.83926Z" fill="white" stroke="white" stroke-width="0.9"/>
</g>
</svg>
