<svg width="57" height="56" viewBox="0 0 57 56" fill="none" xmlns="http://www.w3.org/2000/svg">
<g id="spot">
<rect x="0.5" width="56" height="56" rx="28" fill="#E0F5FF"/>
<g id="Group 16738">
<path id="Rectangle 3057" d="M12.5 23.5C12.5 22.1193 13.6193 21 15 21H42C43.3807 21 44.5 22.1193 44.5 23.5C44.5 24.8807 43.3807 26 42 26H15C13.6193 26 12.5 24.8807 12.5 23.5Z" fill="#44C1FA"/>
<path id="Rectangle 3058" d="M14.5 26H42.5V38C42.5 40.2091 40.7091 42 38.5 42H18.5C16.2909 42 14.5 40.2091 14.5 38V26Z" fill="#7BD2FC"/>
<rect id="Rectangle 3059" x="26.5" y="21" width="4" height="21" fill="#0098E8"/>
<path id="Rectangle 3060" d="M21.9142 14.4142C22.6952 13.6332 23.9615 13.6332 24.7426 14.4142L30.1303 19.8019L27.3019 22.6303L21.9142 17.2426C21.1331 16.4616 21.1331 15.1953 21.9142 14.4142Z" fill="#0098E8"/>
<path id="Rectangle 3061" d="M34.7162 14.4142C33.9352 13.6332 32.6688 13.6332 31.8878 14.4142L26.5001 19.8019L29.3285 22.6303L34.7162 17.2426C35.4973 16.4616 35.4973 15.1953 34.7162 14.4142Z" fill="#0098E8"/>
</g>
</g>
</svg>
