<svg width="73" height="28" viewBox="0 0 73 28" fill="none" xmlns="http://www.w3.org/2000/svg">
<rect width="73" height="28" fill="#F1F1F1"/>
<g id="&#236;&#167;&#132;&#236;&#158;&#133; &#237;&#142;&#152;&#236;&#157;&#180;&#236;&#167;&#128;" clip-path="url(#clip0_139_2983)">
<rect width="360" height="780" transform="translate(-144 -59)" fill="white"/>
<g id="Frame 14081">
<rect width="360" height="48.0001" transform="translate(-144 -10)" fill="white"/>
<g id="Frame 14080">
<g id="Frame 14083">
<g id="logo">
<path id="Vector 194" d="M57.5092 16.2292C56.0291 14.5617 54.5819 10.8343 54.0557 8.87246V6.02783H56.8185C57.1343 8.46048 58.3973 10.9651 58.9893 11.9133L60.6668 18.7796L58.9893 28.0001H55.4371L57.5092 16.2292Z" fill="#0098E8"/>
<path id="Vector 194 (Stroke)" fill-rule="evenodd" clip-rule="evenodd" d="M39.4727 14.3136V6.02783H42.8462V14.3136C42.8462 16.4711 44.6004 18.22 46.7643 18.22C48.9283 18.22 50.6825 16.4711 50.6825 14.3136V6.02783H54.056V14.3136C54.056 18.3286 50.7914 21.5834 46.7643 21.5834C42.7373 21.5834 39.4727 18.3286 39.4727 14.3136Z" fill="#0098E8"/>
<g id="Group 16736">
<path id="Subtract" fill-rule="evenodd" clip-rule="evenodd" d="M30.0781 21.5834C34.1254 21.5834 37.4063 18.1012 37.4063 13.8056C37.4063 9.51007 34.1254 6.02783 30.0781 6.02783C26.0309 6.02783 22.75 9.51007 22.75 13.8056C22.75 18.1012 26.0309 21.5834 30.0781 21.5834ZM29.6411 17.6396C31.7553 17.6396 33.4692 15.923 33.4692 13.8055C33.4692 11.688 31.7553 9.97138 29.6411 9.97138C27.5268 9.97138 25.8129 11.688 25.8129 13.8055C25.8129 15.923 27.5268 17.6396 29.6411 17.6396Z" fill="#2A2F34"/>
<path id="Subtract_2" fill-rule="evenodd" clip-rule="evenodd" d="M65.4673 21.5834C69.5145 21.5834 72.7954 18.1012 72.7954 13.8056C72.7954 9.51007 69.5145 6.02783 65.4673 6.02783C61.4201 6.02783 58.1392 9.51007 58.1392 13.8056C58.1392 18.1012 61.4201 21.5834 65.4673 21.5834ZM65.0299 17.6396C67.1442 17.6396 68.8581 15.923 68.8581 13.8055C68.8581 11.688 67.1442 9.97138 65.0299 9.97138C62.9157 9.97138 61.2018 11.688 61.2018 13.8055C61.2018 15.923 62.9157 17.6396 65.0299 17.6396Z" fill="#0098E8"/>
</g>
<rect id="Rectangle 3035" x="0.194824" y="6.02783" width="11.8611" height="3.50001" fill="#2A2F34"/>
<rect id="Rectangle 3038" x="18.667" y="6.02783" width="15.5556" height="3.50001" transform="rotate(90 18.667 6.02783)" fill="#2A2F34"/>
<rect id="Rectangle 3039" x="25.2778" y="6.02783" width="21.9723" height="3.50001" transform="rotate(90 25.2778 6.02783)" fill="#2A2F34"/>
<path id="Rectangle 3037" d="M12.0555 9.55093L2.91666 19.9308L-1.78111e-05 18.0835L9.52773 7.21757L12.0555 9.55093Z" fill="#2A2F34"/>
<rect id="Rectangle 3036" y="18.0833" width="12.0556" height="3.50001" fill="#2A2F34"/>
<ellipse id="Ellipse 1235" cx="17.0139" cy="2.23612" rx="2.23612" ry="2.23612" fill="#2A2F34"/>
</g>
</g>
</g>
</g>
</g>
<defs>
<clipPath id="clip0_139_2983">
<rect width="360" height="780" fill="white" transform="translate(-144 -59)"/>
</clipPath>
</defs>
</svg>
