<svg xmlns="http://www.w3.org/2000/svg" width="21" height="20" viewBox="0 0 21 20" fill="none">
  <mask id="mask0_252_3301" style="mask-type:alpha" maskUnits="userSpaceOnUse" x="0" y="0" width="21" height="20">
    <rect width="20" height="20" transform="matrix(-4.37114e-08 -1 -1 4.37114e-08 20.8655 20)" fill="#D9D9D9"/>
  </mask>
  <g mask="url(#mask0_252_3301)">
    <path d="M10.8654 8.83333L16.7404 14.7083C16.9348 14.9028 17.171 15 17.4487 15C17.7265 15 17.9626 14.9028 18.1571 14.7083C18.3515 14.5139 18.4487 14.2778 18.4487 14C18.4487 13.7222 18.3515 13.4861 18.1571 13.2917L11.9279 7.0625C11.7751 6.90972 11.6085 6.79861 11.4279 6.72917C11.2473 6.65972 11.0598 6.625 10.8654 6.625C10.671 6.625 10.4835 6.65972 10.3029 6.72917C10.1223 6.79861 9.95567 6.90972 9.8029 7.0625L3.57373 13.2917C3.37929 13.4861 3.28206 13.7222 3.28206 14C3.28206 14.2778 3.37929 14.5139 3.57373 14.7083C3.76818 14.9028 4.00429 15 4.28206 15C4.55984 15 4.79595 14.9028 4.9904 14.7083L10.8654 8.83333Z" fill="#0098E8"/>
  </g>
</svg>